<?xml version="1.0" encoding="utf-8"?>
<!-- Svg Vector Icons : http://www.onlinewebfonts.com/icon -->
<!DOCTYPE svg PUBLIC "-//W3C//DTD SVG 1.1//EN" "http://www.w3.org/Graphics/SVG/1.1/DTD/svg11.dtd">
<svg version="1.1" xmlns="http://www.w3.org/2000/svg" x="0px" y="0px" fill="white" viewBox="0 0 1000 1000" enable-background="new 0 0 1000 1000" xml:space="preserve">
<metadata> Svg Vector Icons : http://www.onlinewebfonts.com/icon </metadata>
<g><g transform="translate(0.000000,512.000000) scale(0.100000,-0.100000)"><path d="M4543.9,4993.2c-1623.8-201-2923.9-1374.8-3243.7-2923.9c-44.1-212.5-72.8-492.1-65.1-630l5.7-122.5L2579.3-613.4c1294.4-1868.8,1336.5-1930.1,1315.5-1983.8c-13.4-30.6-17.2-76.6-9.6-109.1c7.6-30.6,105.3-241.3,220.2-469.1c174.2-348.5,220.2-425.1,294.9-492.1l88.1-76.6l-1.9-423.2c0-471,11.5-532.3,113-584c72.8-38.3,122.5-38.3,195.3,0c88.1,44.1,113,128.3,113,371.5v210.6h95.7h95.7v-210.6c0-243.2,24.9-327.4,113-371.5c72.8-38.3,122.5-38.3,195.3,0c101.5,51.7,113,113,113,584l-1.9,423.2l88.1,76.6c74.7,67,120.6,143.6,294.9,492.1c114.9,227.9,212.5,438.5,220.2,469.1c7.6,32.5,3.8,78.5-9.6,109.1c-21.1,53.7,21.1,114.9,1315.5,1983.8l1338.5,1930.1l-1.9,229.8c-3.8,266.2-40.2,495.9-132.1,810c-325.5,1131.7-1221.6,2060.3-2366.7,2452.9C5715.8,4997,5103.1,5062.1,4543.9,4993.2z M2525.7,2109.5c287.2-107.2,478.7-346.6,524.6-653c11.5-70.8,271.9-842.5,626.1-1847.8l608.9-1729.1l103.4,103.4l101.5,101.5L3875.7-276.4l-612.7,1637.2l17.2,109.1c70.8,438.5,494,750.6,921,681.7c354.2-57.4,630-331.3,687.4-683.6c11.5-65.1,19.2-754.4,19.2-1648.7v-1537.6h95.7h95.7v1549.1c0,972.7,7.7,1585.5,19.1,1650.6c49.8,258.5,222.1,488.3,448.1,593.6c245.1,114.9,467.2,114.9,712.3,0c229.8-107.2,405.9-344.7,448.1-605.1l17.2-109.1L6131.3-276.4l-614.7-1639.1l101.5-101.5l103.4-103.4l601.3,1704.2c375.3,1064.6,610.8,1759.7,626.1,1849.7c68.9,390.6,321.7,653,693.2,718.1c329.4,59.4,702.7-139.8,848.3-450c57.4-124.5,103.4-325.5,80.4-363.8c-7.6-11.5-614.6-890.4-1349.9-1951.2c-735.3-1062.7-1336.5-1937.8-1336.5-1945.4s-36.4-49.8-82.3-93.8c-55.5-55.5-122.6-160.9-214.5-348.5l-132.1-268.1l-53.6,51.7c-42.1,40.2-76.6,51.7-181.9,61.3l-130.2,11.5l82.3,26.8c46,15.3,120.6,61.3,164.7,101.5c227.8,199.1,231.7,551.5,7.6,754.4c-107.2,95.7-195.3,128.3-340.8,128.3c-147.4,0-233.6-32.5-340.8-130.2c-227.9-204.9-224-551.5,9.6-756.3c47.9-42.1,122.6-88.1,166.6-101.5l78.5-23l-130.2-11.5c-105.3-9.6-139.8-21.1-181.9-61.3l-53.6-51.7l-132.1,270c-101.5,204.9-155.1,289.1-222.1,352.3c-49.8,46-86.2,88.1-82.3,91.9c5.7,3.8-593.6,877-1328.9,1939.7C2050.8,447.4,1443.9,1326.4,1436.2,1337.8c-23,38.3,23,239.4,80.4,363.8c105.3,224,344.7,404,589.8,448.1C2228.9,2170.8,2405.1,2153.5,2525.7,2109.5z"/></g></g>
</svg>
